Patient4_TMGait_0pt4_03_left_23_EMG.mot
version=1
nRows=16
nColumns=33
inDegrees=no
endheader
time	1LAddLong	2LGlutMax	3LGlutMed	4LIliopsoas	5LSemiMemb	6LBicFemLong	7LRecFem	8LVastMed	9LVastLat	10LGasMed	11LTibAnt	12lTibPost	13LPeroneusLong	14LSol	15LExtDigLong	16LFlexDigLong	17RAddLong	18RGlutMax	19RGlutMed	20RIliopsoas	21RSemiMemb	22RBicFemLong	23RRecFem	24RVastMed	25RVastLat	26RGasMed	27RTibAnt	28RTibPost	29RPeroneusLong	30RSol	31RExtDigLong	32RFlexDigLong
30.13	0.008087	-0.054474	-0.041962	0.005646	0.011444	-0.058899	0.075989	0.006866	-0.052643	-0.054016	0.016937	0.011139	0.019226	-0.09079	-0.1857	0.033417	0.000916	-0.041656	0.6311	-0.025787	-0.11536	-0.076141	0.12024	-0.028534	0.009003	0.003052	0.06485	-0.024261	-1.2807	-0.11719	0.000763	-0.005035
30.131	0.00351	-0.058594	-0.024567	-0.001221	-0.005493	-0.061951	0.090332	0.005646	-0.035248	-0.063934	0.14633	0.000916	0.039825	-0.12207	-0.16525	0.040283	-0.015106	-0.057373	0.73593	-0.064545	0.001831	-0.079803	0.11993	-0.038605	0.001984	0.023193	0.037231	-0.020905	-0.72067	-0.20706	0.000305	-0.002899
30.132	0.005035	-0.036163	-0.036316	-0.000305	0.000458	-0.057373	0.11566	0.005646	-0.024414	-0.042267	0.094604	0.009003	-0.000763	-0.13702	0.15259	0.031128	-0.00061	-0.015564	0.60623	-0.038605	0.020142	-0.08255	0.12756	-0.001984	-0.027924	0.001068	-0.093842	-0.014343	0.71411	-0.1001	-0.000458	-0.001526
30.133	0.018616	-0.054779	-0.044861	-0.004883	0.005798	-0.061646	0.084686	0.002594	-0.010071	-0.035248	-0.032654	-0.00061	0.030518	-0.13001	-0.050964	0.034485	0.004272	-0.019379	0.27649	-0.025482	0.016174	-0.041046	0.081635	-0.0354	-0.038605	-0.074921	-0.17456	0.003357	1.1575	-0.024872	0.002594	-0.003662
30.134	0.008698	-0.065765	-0.028687	-0.002747	0.00473	-0.07431	0.088959	0.007629	-0.009918	-0.024261	0.041351	0.002136	0.015106	-0.17487	-0.23911	0.023346	-0.009003	-0.089111	0.25085	-0.096893	0.07309	-0.038757	0.13855	-0.059204	-0.057526	-0.112	-0.12436	-0.005798	0.14435	-0.18799	0.002899	-0.00412
30.135	0.014191	-0.092621	-0.054932	0.012207	0.002136	-0.078125	0.065002	0.012665	-0.011444	0.009155	0.11643	-0.00351	-0.008392	-0.20172	-0.07431	0.01709	-0.018616	-0.10422	0.51743	-0.13275	0.067291	-0.11795	0.24704	-0.017548	-0.08728	-0.11963	0.063324	-0.01709	-0.24338	-0.20966	-0.000916	-0.014038
30.136	0.011292	-0.098877	-0.081177	-0.001831	0.005035	-0.050964	0.07782	0.001526	-0.012817	0.012817	0.090637	-0.003204	-0.007782	-0.15839	0.24002	0.007019	-0.006104	-0.085754	0.59876	-0.18234	0.012054	-0.13534	0.30945	-0.051727	-0.12543	-0.089264	0.045776	-0.075989	1.1082	-0.32654	-0.000763	-0.018921
30.137	0.009308	-0.096436	-0.099487	-0.001068	-0.003052	-0.044098	0.071411	0.001068	-0.010223	-0.020752	0.010529	-0.003204	0.027161	-0.11002	0.21744	0.003357	0.006256	-0.023499	0.57983	-0.1207	-0.014191	-0.17166	0.15045	-0.071259	-0.065155	-0.090942	-0.00351	-0.083923	1.5494	-0.06546	0.000916	-0.007172
30.138	0.014343	-0.096283	-0.083618	-0.01709	-0.000763	-0.051117	0.075226	0.011139	-0.014343	-0.046997	-0.093536	-0.00885	0.073395	-0.05249	0.078278	0.014343	-0.00824	-0.030975	0.3096	-0.069733	0.004578	-0.1091	-0.036926	0.026245	0.026703	-0.096893	0.073853	-0.000763	0.82581	0.41885	0.001373	-0.016022
30.139	0.005341	-0.10025	-0.090942	-0.001678	0.01297	-0.062408	0.071869	-0.012207	0.00351	-0.045471	-0.17288	-0.002136	0.075989	-0.024109	-0.045471	0.015106	-0.008545	0.009155	0.29938	-0.088959	-0.019531	-0.03952	-0.12024	-0.015106	0.023193	-0.015106	0.016937	0.027161	-0.45441	0.39291	-0.000153	-0.013885
30.14	0.010986	-0.088806	-0.058289	0.011139	0.020752	-0.070801	0.05661	0.010529	0.010223	-0.015106	-0.060425	-0.004883	0.031281	-0.04364	-0.13596	0.001984	0.005646	-0.009155	0.30304	0.058746	-0.028076	0.080566	-0.16571	-0.053864	0.067902	0.1268	0.030212	0.067139	-1.4838	0.10834	0.006104	-0.01358
30.141	0.016022	-0.098572	-0.046844	0.028076	0.016937	-0.058441	0.057373	0.008545	-0.00061	-0.016937	-0.003815	-0.005646	-0.032806	-0.015106	0.031738	0.005951	0.002441	0.078583	0.063782	0.27191	-0.013123	0.028229	-0.32288	-0.045319	0.037231	0.14664	-0.004272	0.001831	-0.54413	-0.27023	0.002289	-0.015259
30.142	0.009003	-0.067902	-0.048828	0.002441	0.015106	-0.058136	0.057678	0.009766	0.005493	-0.01709	-0.077362	0.000763	-0.02121	-0.028229	-0.072174	0.008698	0.00946	0.14862	0.20126	0.24963	-0.024414	0.028381	-0.15335	0.031433	0.013733	0.067749	0.02182	-0.024567	-0.76248	-0.1712	0.000458	-0.014954
30.143	0.013123	-0.11429	0.015106	0.008392	0.007629	-0.045319	0.054779	0.009308	0.013885	-0.010834	-0.018768	-0.005798	0.002136	-0.03418	-0.10742	0.001984	0.012512	0.049438	0.44174	0.14343	-0.013885	0.27603	0.008087	0.089569	0.16129	0.028839	-0.030975	-0.031281	0.065002	0.096436	0.00473	-0.013733
30.144	0.010529	-0.10773	-0.051727	0.008087	0.004272	-0.041199	0.053101	0.001678	0.001678	-0.002899	0.056763	-0.00885	0.003815	-0.075684	-0.12558	0.003357	0.014648	0.005188	0.8815	0.016327	0.014954	0.28351	0.018463	0.053558	0.16434	0.006104	-0.18921	-0.023346	0.49042	0.18448	0.002136	-0.000458
30.145	0.004578	-0.087128	-0.057373	0.009308	0.007477	-0.051575	0.053864	0.003204	0.019531	-0.005341	-0.053406	-0.007172	0.03067	-0.14893	-0.067444	0.00351	0.019531	0.15427	0.7782	-0.031738	0.023804	0.058136	0.0354	0.03067	0.11139	-0.009155	-0.1532	0.006104	-0.17624	-0.020905	0.006256	-0.000916
